<?xml version="1.0"?>
<svg viewBox="0 0 24 24" xmlns="http://www.w3.org/2000/svg" xmlns:svg="http://www.w3.org/2000/svg">
 <g class="layer">
  <title>Layer 1</title>
  <path d="m12,5a3.5,3.5 0 0 0 -3.5,3.5a3.5,3.5 0 0 0 3.5,3.5a3.5,3.5 0 0 0 3.5,-3.5a3.5,3.5 0 0 0 -3.5,-3.5m0,2a1.5,1.5 0 0 1 1.5,1.5a1.5,1.5 0 0 1 -1.5,1.5a1.5,1.5 0 0 1 -1.5,-1.5a1.5,1.5 0 0 1 1.5,-1.5m-6.5,1a2.5,2.5 0 0 0 -2.5,2.5c0,0.94 0.53,1.75 1.29,2.18c0.36,0.2 0.77,0.32 1.21,0.32c0.44,0 0.85,-0.12 1.21,-0.32c0.37,-0.21 0.68,-0.51 0.91,-0.87c-0.73,-0.95 -1.12,-2.11 -1.12,-3.31c0,-0.09 0,-0.19 0,-0.28c-0.3,-0.14 -0.64,-0.22 -1,-0.22m13,0c-0.36,0 -0.7,0.08 -1,0.22c0,0.09 0,0.19 0,0.28c0,1.2 -0.39,2.36 -1.12,3.31c0.12,0.19 0.25,0.34 0.4,0.49c0.16,0.15 0.32,0.28 0.51,0.38c0.36,0.2 0.77,0.32 1.21,0.32c0.44,0 0.85,-0.12 1.21,-0.32c0.76,-0.43 1.29,-1.24 1.29,-2.18a2.5,2.5 0 0 0 -2.5,-2.5m-6.5,6c-2.34,0 -7,1.17 -7,3.5l0,1.5l14,0l0,-1.5c0,-2.33 -4.66,-3.5 -7,-3.5m-7.29,0.55c-1.93,0.23 -4.71,1.21 -4.71,2.95l0,1.5l3,0l0,-1.93c0,-1.01 0.69,-1.85 1.71,-2.52m14.58,0c1.02,0.67 1.71,1.51 1.71,2.52l0,1.93l3,0l0,-1.5c0,-1.74 -2.78,-2.72 -4.71,-2.95m-7.29,1.45c1.53,0 3.24,0.5 4.23,1l-8.46,0c0.99,-0.5 2.7,-1 4.23,-1z" fill="#ffffff" id="svg_1"/>
 </g>
</svg>