<?xml version="1.0"?>
<svg viewBox="0 0 200 200" xmlns="http://www.w3.org/2000/svg" xmlns:svg="http://www.w3.org/2000/svg" enable-background="new 0 0 750 500" version="1.1" xml:space="preserve">
 <g class="layer">
  <title>Layer 1</title>
  <g id="OBJECTS">
   <g id="XMLID_48_">
    <path d="m69.52,43.99c0,0 -5.35,20.87 -1.07,42.79c0,0 5.25,15.73 18.11,15.73c0,0 -1.43,14.29 -13.82,21.92c-12.39,7.62 -47.65,6.67 -60.04,35.26c0,0 48.6,23.35 94.83,8.1c46.22,-15.25 65,5.37 79.77,-3.21c0,0 -6.07,-16.28 -23.62,-28.13c-7.44,-5.02 -16.01,-8.09 -24.87,-9.48c-1.48,-0.24 -2.94,-0.51 -4.02,-0.83c-9.56,-2.82 -14.87,-4.37 -13.44,-34.11l1.43,-23.35c0,0 9.53,5.24 10.96,-5.72c1.43,-10.96 -6.2,-11.92 -10.48,-10.49c0,0 -1.91,-23.35 -18.59,-25.73c-16.68,-2.39 -30.38,5.81 -35.15,17.25z" fill="#774940" id="XMLID_62_"/>
    <path d="m114.32,58.29c0,0 -2.2,13.29 -7.59,18.67c-5.38,5.38 -13.25,-4.37 -26.88,-0.84s-12.74,0.69 -12.74,0.69s-1.63,18.54 14.82,24.96c15.32,5.99 37.92,-11.38 37.92,-11.38l-0.84,-29.34l-4.69,-2.76z" fill="#0F1D2A" id="XMLID_59_"/>
    <path d="m86.56,102.51c0,0 18.06,-2.22 28.42,-8.79c0,0 -14.93,16.68 -30.59,16.67l2.17,-7.88z" fill="#5E302A" id="XMLID_61_"/>
    <path d="m72.74,124.43c0,0 3.28,11.38 25,11.38s32,-11.38 32,-11.38l17.61,4.44c0,0 13.77,2.95 27.03,16.56c13.26,13.61 12.92,19.15 12.92,19.15s-4.59,5.23 -19.62,0.75c-15.04,-4.48 -43.84,-1.83 -47.06,-1.1c-3.22,0.73 -39.54,16.87 -77.82,5.23c0,0 -23.13,-5.2 -30.1,-9.77c0,0 4.74,-14.42 22.72,-22.47c17.97,-8.05 37.32,-12.79 37.32,-12.79z" fill="#EC9091" id="XMLID_60_"/>
    <path d="m78.58,53.21c0,0 -5.14,-0.67 -8.71,2.23s-2.23,4.25 3.35,3.8c5.58,-0.45 8.26,-1.56 8.04,-4.02c-0.23,-2.46 -2.68,-2.01 -2.68,-2.01z" fill="#0F1D2A" id="XMLID_57_"/>
    <path d="m91.05,53.21c0,0 5.14,-0.67 8.71,2.23c3.57,2.91 2.23,4.25 -3.35,3.8c-5.58,-0.45 -8.26,-1.56 -8.04,-4.02c0.23,-2.46 2.68,-2.01 2.68,-2.01z" fill="#0F1D2A" id="XMLID_56_"/>
    <path d="m81.36,76.46c-0.5,0 -0.97,-0.21 -1.31,-0.59c-0.38,-0.42 -0.53,-0.99 -0.42,-1.55l2.7,-13.07c0.03,-0.13 0.15,-0.22 0.29,-0.19c0.14,0.03 0.23,0.16 0.2,0.29l-2.7,13.07c-0.08,0.41 0.03,0.81 0.3,1.12c0.28,0.3 0.68,0.45 1.08,0.41l5.37,-0.54c0.79,-0.08 1.47,-0.52 1.87,-1.2c0.39,-0.69 0.43,-1.5 0.11,-2.22c-0.31,-0.68 -0.89,-1.17 -1.61,-1.36c-0.71,-0.18 -1.46,-0.04 -2.06,0.4l-0.9,0.66c-0.11,0.09 -0.27,0.06 -0.35,-0.05c-0.08,-0.11 -0.06,-0.27 0.05,-0.35l0.9,-0.66c0.72,-0.53 1.62,-0.71 2.49,-0.48c0.86,0.23 1.56,0.82 1.93,1.63c0.39,0.87 0.35,1.85 -0.13,2.68c-0.48,0.83 -1.3,1.35 -2.25,1.45l-5.38,0.54c-0.06,0 -0.12,0.01 -0.18,0.01z" fill="#0F1D2A" id="svg_18"/>
    <path d="m76.64,66.56c0,1.64 -0.78,2.98 -1.73,2.98c-0.95,0 -1.72,-1.34 -1.72,-2.98s0.77,-2.98 1.72,-2.98c0.95,0 1.73,1.33 1.73,2.98z" fill="#0F1D2A" id="XMLID_54_"/>
    <path d="m95.05,66.56c0,1.64 -0.77,2.98 -1.72,2.98c-0.96,0 -1.73,-1.34 -1.73,-2.98s0.77,-2.98 1.73,-2.98c0.95,0 1.72,1.33 1.72,2.98z" fill="#0F1D2A" id="XMLID_53_"/>
    <path d="m80.28,87.59c-1.59,-1.1 -0.81,-3.64 1.12,-3.65c0.5,0 1.08,0.08 1.75,0.29c3.01,0.97 2.94,-1.23 5.33,-0.55c2.38,0.67 0.94,4.28 -1.97,4.82c-1.91,0.36 -4.62,0.2 -6.23,-0.91z" fill="#FFFFFF" id="XMLID_52_"/>
    <path d="m76.64,95.6c-0.04,0 -0.07,-0.01 -0.11,-0.03c-0.12,-0.06 -0.18,-0.2 -0.12,-0.33c0.05,-0.1 1.25,-2.53 6.53,-2.53c5.28,0 6.55,2.42 6.6,2.53c0.06,0.12 0.01,0.27 -0.11,0.33c-0.13,0.07 -0.28,0.01 -0.34,-0.11c-0.01,-0.02 -1.21,-2.25 -6.14,-2.25c-4.97,0 -6.07,2.22 -6.08,2.24c-0.05,0.09 -0.14,0.15 -0.23,0.15z" fill="#0F1D2A" id="svg_19"/>
    <path d="m127.07,66.12c-0.72,0 -1.3,-0.31 -1.62,-0.88c-0.43,-0.76 -0.27,-1.75 0.37,-2.31c0.6,-0.53 0.91,-1.29 0.79,-1.9c-0.11,-0.52 -0.54,-0.92 -1.25,-1.15c-0.13,-0.05 -0.2,-0.19 -0.16,-0.32c0.05,-0.13 0.19,-0.2 0.32,-0.16c1.12,0.37 1.48,1.04 1.58,1.53c0.16,0.79 -0.21,1.72 -0.95,2.37c-0.46,0.4 -0.57,1.15 -0.27,1.69c0.34,0.6 1.06,0.79 1.99,0.5c1.44,-0.44 2.53,-1.81 2.92,-3.68c0.39,-1.84 -0.02,-3.62 -1.06,-4.51c-0.68,-0.59 -1.36,-0.87 -2.03,-0.81c-0.93,0.08 -1.52,0.77 -1.52,0.78c-0.09,0.11 -0.25,0.12 -0.35,0.03c-0.11,-0.08 -0.12,-0.24 -0.04,-0.35c0.03,-0.03 0.72,-0.86 1.86,-0.96c0.82,-0.07 1.62,0.25 2.41,0.93c1.17,1.01 1.65,2.97 1.22,5c-0.43,2.04 -1.65,3.55 -3.27,4.05c-0.33,0.1 -0.65,0.15 -0.94,0.15z" fill="#0F1D2A" id="svg_20"/>
    <path d="m69.52,43.99l33.97,0c0,0 2.71,7.66 10.06,7.66c0,0 -1.52,9.4 5.46,9.4l4.25,-8.58c0,0 -0.43,-26.15 -24.29,-26.15c-23.87,0 -29.45,17.67 -29.45,17.67z" fill="#0F1D2A" id="XMLID_47_"/>
    <path d="m98.72,146.96c-6.99,0 -12.94,-1.23 -17.79,-2.91c-15.24,-5.27 -23.2,-15.91 -23.28,-16.01c-0.16,-0.23 -0.11,-0.54 0.11,-0.7c0.22,-0.17 0.53,-0.12 0.7,0.1c0.07,0.11 7.89,10.52 22.85,15.68c13.81,4.76 36.74,5.89 67.51,-15.79c0.23,-0.16 0.54,-0.1 0.7,0.12c0.15,0.23 0.1,0.54 -0.13,0.7c-20.39,14.36 -37.41,18.81 -50.67,18.81z" fill="#FFFFFF" id="svg_21"/>
    <path d="m94.66,162.31c-9.53,0 -17.65,-1.69 -24.26,-3.97c-20.77,-7.19 -31.63,-21.68 -31.73,-21.83c-0.17,-0.22 -0.12,-0.53 0.1,-0.7c0.23,-0.16 0.54,-0.11 0.7,0.11c0.11,0.14 10.81,14.42 31.31,21.49c18.93,6.53 50.33,8.08 92.47,-21.6c0.22,-0.16 0.54,-0.11 0.69,0.12c0.16,0.22 0.11,0.54 -0.12,0.7c-27.84,19.6 -51.06,25.68 -69.16,25.68z" fill="#FFFFFF" id="svg_22"/>
   </g>
  </g>
 </g>
</svg>