<?xml version="1.0"?>
<svg width="200" height="200" xmlns="http://www.w3.org/2000/svg" xmlns:svg="http://www.w3.org/2000/svg" enable-background="new 0 0 750 500" version="1.1" xml:space="preserve">
 <g class="layer">
  <title>Layer 1</title>
  <g id="OBJECTS">
   <g id="XMLID_134_">
    <path d="m114.46,15.33c0,0 45.94,18.12 3.76,79.84c-42.19,61.73 -41.17,-75.89 -3.76,-79.84z" fill="#0F1D2A" id="XMLID_125_"/>
    <path d="m69.52,40.68c0,0 -5.36,20.87 -1.07,42.8c0,0 5.24,15.72 18.11,15.72c0,0 -1.43,14.3 -13.82,21.92c-12.39,7.63 -47.66,6.67 -60.04,35.27c0,0 48.6,23.35 94.83,8.1c46.22,-15.25 65,5.36 79.77,-3.22c0,0 -6.07,-16.28 -23.62,-28.13c-7.44,-5.02 -16.01,-8.09 -24.87,-9.48c-1.48,-0.23 -2.94,-0.51 -4.02,-0.83c-9.56,-2.81 -14.88,-4.37 -13.44,-34.11l1.43,-23.35c0,0 9.53,5.24 10.96,-5.72c1.43,-10.96 -6.2,-11.91 -10.49,-10.48c0,0 -1.9,-23.35 -18.58,-25.74s-30.38,5.82 -35.15,17.25z" fill="#FEB8BB" id="XMLID_42_"/>
    <path d="m86.56,99.2c0,0 16.62,-0.58 26.99,-7.16c0,0 -13.5,15.06 -29.17,15.05l2.18,-7.89z" fill="#EF8990" id="XMLID_41_"/>
    <path d="m72.74,121.12c0,0 3.28,11.38 25,11.38c21.72,0 32,-11.38 32,-11.38l17.61,4.44c0,0 13.77,2.96 27.03,16.56c13.26,13.61 12.92,19.15 12.92,19.15s-4.59,5.23 -19.63,0.75c-15.03,-4.48 -43.84,-1.83 -47.06,-1.1c-3.22,0.74 -39.54,16.87 -77.81,5.24c0,0 -23.13,-5.2 -30.1,-9.78c0,0 4.73,-14.42 22.71,-22.46c17.98,-8.05 37.33,-12.8 37.33,-12.8z" fill="#742EA0" id="XMLID_40_"/>
    <path d="m81.36,72.65c-0.5,0 -0.97,-0.21 -1.31,-0.59c-0.38,-0.42 -0.54,-0.99 -0.42,-1.55l2.7,-13.07c0.02,-0.13 0.16,-0.22 0.29,-0.19c0.14,0.03 0.22,0.16 0.2,0.29l-2.7,13.07c-0.09,0.41 0.02,0.81 0.3,1.12c0.27,0.3 0.67,0.45 1.07,0.41l5.38,-0.54c0.13,-0.01 0.26,0.09 0.27,0.23c0.01,0.13 -0.09,0.26 -0.22,0.27l-5.38,0.54c-0.06,0 -0.12,0.01 -0.18,0.01z" fill="#0F1D2A" id="svg_12"/>
    <path d="m79.12,81.64c-2.04,-1.41 -1.05,-4.65 1.43,-4.66c0.64,0 1.38,0.1 2.23,0.38c3.86,1.23 3.77,-1.58 6.82,-0.72c3.05,0.86 1.21,5.48 -2.52,6.17c-2.44,0.45 -5.9,0.25 -7.96,-1.17z" fill="#751A3D" id="XMLID_32_"/>
    <path d="m76.21,95.17c0,0 -26.62,9.95 -29.03,25.93c-2.41,15.97 0.54,18.21 10.18,30.27c9.65,12.05 19.06,12.22 5.79,29.4c0,0 8.74,-0.6 11.76,-8.74c0,0 1.51,12.06 -6.03,17.78c0,0 18.08,-4.22 21.7,-34.66s-11.75,-38.88 -11.75,-38.88l0,0c3.77,-4.68 6.36,-10.2 7.54,-16.1l0.19,-0.97l0,0c-3.14,-0.51 -6.17,-1.59 -8.92,-3.2l-1.43,-0.83z" fill="#0F1D2A" id="XMLID_43_"/>
    <path d="m66.54,64.94c0,0 -11.62,-13.31 -6.05,-31.21c5.57,-17.91 25.65,-24.21 34.37,-23.48c8.71,0.73 10.89,6.78 10.89,6.78s2.29,-3.99 8.71,-1.7c10.14,3.63 15.49,34.37 6.05,42.11c0,0 -15.01,-10.4 -16.46,-25.65c0,0 -0.48,9.68 -16.46,15.73c-15.97,6.05 -21.05,17.42 -21.05,17.42z" fill="#0F1D2A" id="XMLID_44_"/>
    <path d="m103.48,23.88c0,0 1.78,8.65 -6.87,12.98c-8.65,4.32 -29.76,5.85 -36.63,20.09c-6.87,14.25 8.78,28.89 8.78,28.89s-4.77,-23.37 2.72,-28.05c13.62,-8.52 37.35,-13.81 32,-33.91z" fill="#0F1D2A" id="XMLID_135_"/>
    <path d="m77.09,57.57c0,1.65 -0.77,2.98 -1.72,2.98s-1.73,-1.33 -1.73,-2.98s0.77,-2.98 1.73,-2.98s1.72,1.34 1.72,2.98z" fill="#0F1D2A" id="XMLID_142_"/>
    <path d="m95.51,57.57c0,1.65 -0.77,2.98 -1.73,2.98c-0.95,0 -1.72,-1.33 -1.72,-2.98s0.77,-2.98 1.72,-2.98c0.96,0 1.73,1.34 1.73,2.98z" fill="#0F1D2A" id="XMLID_138_"/>
    <path d="m127.38,63.22c-0.29,0 -0.59,-0.06 -0.89,-0.2c-0.99,-0.45 -1.57,-1.58 -1.32,-2.56c0.34,-1.3 0.35,-2.2 0.03,-2.69c-0.16,-0.25 -0.41,-0.39 -0.77,-0.45c-0.13,-0.03 -0.23,-0.15 -0.2,-0.29c0.02,-0.14 0.15,-0.23 0.28,-0.21c0.5,0.09 0.87,0.31 1.11,0.68c0.4,0.62 0.41,1.62 0.03,3.08c-0.19,0.76 0.27,1.63 1.05,1.99c0.86,0.39 1.75,0.02 2.46,-1c1.57,-2.28 1.7,-4.42 0.38,-6.37c-1.28,-1.88 -3.61,-1.96 -3.63,-1.96c-0.14,-0.01 -0.25,-0.12 -0.25,-0.26c0.01,-0.14 0.12,-0.24 0.26,-0.24c0.11,0 2.61,0.09 4.03,2.18c1.43,2.1 1.3,4.5 -0.38,6.93c-0.61,0.9 -1.39,1.37 -2.19,1.37z" fill="#0F1D2A" id="svg_13"/>
    <circle cx="127.52" cy="66.44" fill="#FFFFFF" id="XMLID_137_" r="3.43"/>
    <path d="m95.39,67.54c-4.96,0 -9,-4.34 -9,-9.68s4.04,-9.69 9,-9.69c4.95,0 8.99,4.35 8.99,9.69s-4.04,9.68 -8.99,9.68zm0,-18.37c-4.41,0 -8,3.9 -8,8.69s3.59,8.68 8,8.68c4.4,0 7.99,-3.89 7.99,-8.68s-3.59,-8.69 -7.99,-8.69z" fill="#FFFFFF" id="svg_14"/>
    <path d="m72.33,67.54c-4.42,0 -8.02,-4.34 -8.02,-9.68s3.6,-9.69 8.02,-9.69c4.41,0 8.01,4.35 8.01,9.69s-3.59,9.68 -8.01,9.68zm0,-18.37c-3.87,0 -7.02,3.9 -7.02,8.69s3.15,8.68 7.02,8.68c3.86,0 7.01,-3.89 7.01,-8.68s-3.15,-8.69 -7.01,-8.69z" fill="#FFFFFF" id="svg_15"/>
    <path d="m88.22,52.84l-9.9,0c-0.27,0 -0.5,-0.22 -0.5,-0.5c0,-0.28 0.23,-0.5 0.5,-0.5l9.9,0c0.28,0 0.5,0.22 0.5,0.5c0,0.28 -0.22,0.5 -0.5,0.5z" fill="#FFFFFF" id="svg_16"/>
    <path d="m118.29,54.64l-15.14,0c-0.28,0 -0.5,-0.22 -0.5,-0.5c0,-0.28 0.22,-0.5 0.5,-0.5l15.14,0c0.27,0 0.5,0.22 0.5,0.5c0,0.28 -0.23,0.5 -0.5,0.5z" fill="#FFFFFF" id="svg_17"/>
    <path d="m104.22,31.46c0,0 -2.26,9.67 4.86,19.08c7.12,9.41 8.54,26.46 -2.6,38.42c0,0 17.61,-8.4 17.61,-25.95c0,-17.56 -15.82,-16.28 -19.87,-31.55z" fill="#0F1D2A" id="XMLID_136_"/>
    <path d="m80.28,82.26c0,0 1.36,-2.51 4.3,-2.51s4.75,2.03 4.75,2.03s-1.59,1.48 -5.49,1.25c0,0 -2.74,-0.37 -3.56,-0.77z" fill="#FF7882" id="XMLID_146_"/>
   </g>
  </g>
 </g>
</svg>