<?xml version="1.0"?>
<svg viewBox="0 0 200 200" xmlns="http://www.w3.org/2000/svg" xmlns:svg="http://www.w3.org/2000/svg" enable-background="new 0 0 750 500" version="1.1" xml:space="preserve">
 <g class="layer">
  <title>Layer 1</title>
  <g id="OBJECTS">
   <g id="XMLID_71_">
    <path d="m74.58,37.49c0,0 -20.9,15.13 -4.81,38.71c16.09,23.58 4.81,-38.71 4.81,-38.71z" fill="#142633" id="XMLID_65_"/>
    <path d="m69.53,53.42c0,0 -5.36,20.87 -1.07,42.79c0,0 5.24,15.72 18.1,15.72c0,0 -1.42,14.3 -13.82,21.93c-12.39,7.62 -47.65,6.67 -60.04,35.26c0,0 48.61,23.35 94.83,8.1c46.23,-15.25 65,5.36 79.77,-3.21c0,0 -6.06,-16.29 -23.62,-28.13c-7.43,-5.03 -16,-8.09 -24.87,-9.48c-1.48,-0.24 -2.93,-0.52 -4.02,-0.84c-9.55,-2.81 -14.87,-4.37 -13.44,-34.11l1.43,-23.35c0,0 9.53,5.25 10.96,-5.72c1.43,-10.96 -6.19,-11.91 -10.48,-10.48c0,0 -1.91,-23.35 -18.59,-25.73c-16.68,-2.39 -30.38,5.81 -35.14,17.25z" fill="#FEB8BB" id="XMLID_82_"/>
    <path d="m86.56,111.93c0,0 16.63,-0.58 26.99,-7.15c0,0 -13.5,15.05 -29.16,15.04l2.17,-7.89z" fill="#EF8990" id="XMLID_81_"/>
    <path d="m72.75,133.85c0,0 3.27,11.39 24.99,11.39c21.72,0 32,-11.39 32,-11.39l17.61,4.45c0,0 13.78,2.95 27.03,16.56c13.26,13.61 12.92,19.14 12.92,19.14s-4.59,5.23 -19.62,0.75c-15.03,-4.47 -43.84,-1.83 -47.06,-1.09c-3.22,0.73 -39.54,16.86 -77.82,5.23c0,0 -23.13,-5.2 -30.1,-9.77c0,0 4.74,-14.42 22.72,-22.47c17.98,-8.05 37.33,-12.8 37.33,-12.8z" fill="#0F1D2A" id="XMLID_80_"/>
    <path d="m78.58,62.64c0,0 -5.14,-0.67 -8.71,2.23c-3.57,2.9 -2.23,4.24 3.35,3.8c5.58,-0.45 8.26,-1.57 8.04,-4.02c-0.22,-2.46 -2.68,-2.01 -2.68,-2.01z" fill="#0F1D2A" id="XMLID_77_"/>
    <path d="m91.05,62.64c0,0 5.14,-0.67 8.71,2.23c3.58,2.9 2.24,4.24 -3.35,3.8c-5.58,-0.45 -8.26,-1.57 -8.04,-4.02c0.23,-2.46 2.68,-2.01 2.68,-2.01z" fill="#0F1D2A" id="XMLID_76_"/>
    <path d="m81.37,83.9c-0.51,0 -0.98,-0.2 -1.32,-0.58c-0.38,-0.43 -0.53,-0.99 -0.42,-1.55l2.7,-13.07c0.03,-0.13 0.16,-0.22 0.3,-0.19c0.13,0.03 0.22,0.16 0.19,0.29l-2.7,13.07c-0.08,0.4 0.03,0.81 0.3,1.11c0.28,0.31 0.68,0.46 1.08,0.42l5.37,-0.54c0.79,-0.08 1.47,-0.52 1.87,-1.2c0.39,-0.69 0.43,-1.5 0.11,-2.23c-0.31,-0.67 -0.89,-1.16 -1.61,-1.35c-0.71,-0.19 -1.46,-0.04 -2.06,0.4l-0.9,0.66c-0.11,0.08 -0.26,0.06 -0.35,-0.05c-0.08,-0.11 -0.06,-0.27 0.06,-0.35l0.89,-0.67c0.72,-0.52 1.63,-0.7 2.49,-0.47c0.86,0.22 1.56,0.82 1.93,1.63c0.4,0.87 0.35,1.85 -0.13,2.68c-0.48,0.82 -1.3,1.35 -2.25,1.45l-5.37,0.54c-0.06,0 -0.12,0 -0.18,0z" fill="#0F1D2A" id="svg_34"/>
    <path d="m76.64,75.98c0,1.65 -0.77,2.98 -1.73,2.98c-0.95,0 -1.72,-1.33 -1.72,-2.98s0.77,-2.97 1.72,-2.97c0.96,0 1.73,1.33 1.73,2.97z" fill="#0F1D2A" id="XMLID_74_"/>
    <path d="m95.05,75.98c0,1.65 -0.77,2.98 -1.72,2.98s-1.73,-1.33 -1.73,-2.98s0.78,-2.97 1.73,-2.97s1.72,1.33 1.72,2.97z" fill="#0F1D2A" id="XMLID_73_"/>
    <path d="m77.61,94.88c-2.6,-1.79 -1.33,-5.94 1.83,-5.95c0.81,0 1.76,0.13 2.85,0.48c4.92,1.58 4.81,-2.01 8.7,-0.91c3.89,1.1 1.54,6.99 -3.21,7.87c-3.11,0.58 -7.54,0.33 -10.17,-1.49z" fill="#FFFFFF" id="XMLID_72_"/>
    <path d="m89.32,104.78c0,0 -1.19,-2.39 -6.38,-2.39c-5.18,0 -6.3,2.39 -6.3,2.39s-1.13,5.93 4.62,11.68c5.76,5.76 9.69,-5.71 8.06,-11.68z" fill="#0F1D2A" id="XMLID_79_"/>
    <path d="m127.07,75.55c-0.72,0 -1.3,-0.31 -1.62,-0.88c-0.43,-0.76 -0.27,-1.76 0.37,-2.31c0.6,-0.53 0.92,-1.29 0.79,-1.9c-0.11,-0.52 -0.54,-0.92 -1.25,-1.15c-0.13,-0.05 -0.2,-0.19 -0.16,-0.32c0.05,-0.13 0.19,-0.2 0.32,-0.16c1.12,0.36 1.48,1.03 1.58,1.53c0.16,0.79 -0.21,1.72 -0.95,2.37c-0.45,0.4 -0.57,1.14 -0.27,1.69c0.34,0.6 1.06,0.78 1.99,0.5c1.44,-0.44 2.53,-1.82 2.92,-3.68c0.39,-1.85 -0.02,-3.62 -1.05,-4.51c-0.69,-0.6 -1.38,-0.87 -2.05,-0.81c-0.93,0.08 -1.51,0.77 -1.51,0.78c-0.09,0.11 -0.25,0.12 -0.35,0.03c-0.11,-0.08 -0.13,-0.24 -0.04,-0.35c0.03,-0.03 0.72,-0.86 1.86,-0.96c0.81,-0.07 1.62,0.24 2.41,0.93c1.17,1.01 1.65,2.97 1.22,4.99c-0.43,2.05 -1.65,3.56 -3.27,4.06c-0.33,0.1 -0.64,0.15 -0.94,0.15z" fill="#0F1D2A" id="svg_35"/>
    <path d="m73.19,47.28c0,0 6.57,30.52 49.15,23.2c0,0 -2.9,-9.67 4.84,-9.07c0,0 4.16,-22.26 -13.63,-28.83c-17.79,-6.57 -26.31,-22.01 -36.91,-12.86c-10.6,9.14 -3.45,27.56 -3.45,27.56z" fill="#0F1D2A" id="XMLID_68_"/>
    <g id="XMLID_67_">
     <path d="m83.91,85.98c0,0 6.74,-4.89 12.68,1.31c5.94,6.21 14.77,2.9 12.39,-3.14c0,0 3.22,7.68 -5.25,9.83c-8.48,2.15 -9.58,-4.3 -14.4,-3.34c-4.82,0.95 -6.85,-0.6 -5.42,-4.66z" fill="#0F1D2A" id="XMLID_66_"/>
     <path d="m84.86,85.98c0,0 -6.74,-4.89 -12.68,1.31c-5.94,6.21 -14.77,2.9 -12.38,-3.14c0,0 -3.22,7.68 5.25,9.83c8.47,2.15 9.58,-4.3 14.4,-3.34s6.84,-0.6 5.41,-4.66z" fill="#0F1D2A" id="XMLID_69_"/>
    </g>
   </g>
  </g>
 </g>
</svg>