<?xml version="1.0"?>
<svg viewBox="0 0 200 200" xmlns="http://www.w3.org/2000/svg" xmlns:svg="http://www.w3.org/2000/svg" enable-background="new 0 0 750 500" version="1.1" xml:space="preserve">
 <g class="layer">
  <title>Layer 1</title>
  <g id="OBJECTS">
   <g id="XMLID_87_">
    <circle cx="71.05" cy="46.54" fill="#777777" id="XMLID_356_" r="5.58"/>
    <circle cx="73.46" cy="39.88" fill="#777777" id="XMLID_357_" r="5.58"/>
    <circle cx="79.84" cy="37.62" fill="#777777" id="XMLID_358_" r="5.58"/>
    <circle cx="119.13" cy="39.88" fill="#777777" id="XMLID_353_" r="5.58"/>
    <path d="m69.52,44c0,0 -5.36,20.87 -1.07,42.79c0,0 5.24,15.72 18.11,15.72c0,0 -1.43,14.3 -13.82,21.93c-12.39,7.62 -47.65,6.67 -60.04,35.26c0,0 48.6,23.35 94.83,8.1c46.22,-15.25 65,5.36 79.77,-3.21c0,0 -6.07,-16.29 -23.62,-28.13c-7.44,-5.03 -16.01,-8.09 -24.87,-9.48c-1.48,-0.24 -2.94,-0.52 -4.02,-0.84c-9.56,-2.81 -14.88,-4.37 -13.44,-34.11l1.43,-23.35c0,0 9.53,5.25 10.96,-5.72c1.43,-10.96 -6.2,-11.91 -10.49,-10.48c0,0 -1.9,-23.35 -18.58,-25.73c-16.68,-2.39 -30.38,5.81 -35.15,17.25z" fill="#FEB8BB" id="XMLID_102_"/>
    <path d="m86.56,102.51c0,0 16.62,-0.58 26.98,-7.15c0,0 -13.49,15.05 -29.16,15.04l2.18,-7.89z" fill="#EF8990" id="XMLID_101_"/>
    <path d="m72.74,124.43c0,0 3.28,11.39 25,11.39c21.72,0 32,-11.39 32,-11.39l17.61,4.45c0,0 13.77,2.95 27.03,16.56c13.26,13.61 12.92,19.14 12.92,19.14s-4.59,5.23 -19.63,0.75c-15.03,-4.47 -43.84,-1.83 -47.06,-1.09c-3.22,0.73 -39.54,16.86 -77.81,5.23c0,0 -23.14,-5.2 -30.1,-9.77c0,0 4.73,-14.42 22.71,-22.47c17.98,-8.05 37.33,-12.8 37.33,-12.8z" fill="#23384D" id="XMLID_100_"/>
    <path d="m78.57,53.22c0,0 -5.13,-0.67 -8.71,2.23c-3.57,2.9 -2.23,4.24 3.35,3.8c5.59,-0.45 8.27,-1.57 8.04,-4.02c-0.22,-2.46 -2.68,-2.01 -2.68,-2.01z" fill="#777777" id="XMLID_97_"/>
    <path d="m91.05,53.22c0,0 5.14,-0.67 8.71,2.23c3.57,2.9 2.23,4.24 -3.35,3.8c-5.58,-0.45 -8.26,-1.57 -8.04,-4.02c0.22,-2.46 2.68,-2.01 2.68,-2.01z" fill="#777777" id="XMLID_96_"/>
    <path d="m81.36,74.48c-0.5,0 -0.97,-0.2 -1.31,-0.58c-0.38,-0.43 -0.54,-0.99 -0.42,-1.55l2.7,-13.07c0.02,-0.13 0.16,-0.22 0.29,-0.19c0.14,0.03 0.22,0.16 0.2,0.29l-2.7,13.07c-0.08,0.4 0.03,0.81 0.3,1.11c0.27,0.31 0.66,0.46 1.07,0.42l5.38,-0.54c0.79,-0.08 1.47,-0.52 1.86,-1.21c0.4,-0.68 0.44,-1.49 0.11,-2.21c-0.05,-0.13 0,-0.28 0.13,-0.33c0.12,-0.06 0.27,-0.01 0.33,0.12c0.39,0.87 0.34,1.85 -0.13,2.67c-0.48,0.83 -1.3,1.36 -2.25,1.46l-5.38,0.54c-0.06,0 -0.12,0 -0.18,0z" fill="#0F1D2A" id="svg_32"/>
    <path d="m76.63,66.56c0,1.65 -0.77,2.98 -1.72,2.98c-0.95,0 -1.73,-1.33 -1.73,-2.98s0.78,-2.97 1.73,-2.97c0.95,0 1.72,1.33 1.72,2.97z" fill="#0F1D2A" id="XMLID_94_"/>
    <path d="m95.05,66.56c0,1.65 -0.77,2.98 -1.73,2.98c-0.95,0 -1.72,-1.33 -1.72,-2.98s0.77,-2.97 1.72,-2.97c0.96,0 1.73,1.33 1.73,2.97z" fill="#0F1D2A" id="XMLID_93_"/>
    <path d="m127.07,66.13c-0.73,0 -1.31,-0.31 -1.63,-0.88c-0.42,-0.76 -0.26,-1.76 0.38,-2.31c0.59,-0.53 0.91,-1.29 0.79,-1.9c-0.11,-0.53 -0.54,-0.93 -1.25,-1.16c-0.13,-0.04 -0.2,-0.18 -0.16,-0.31c0.04,-0.13 0.19,-0.21 0.32,-0.16c1.12,0.36 1.47,1.03 1.58,1.53c0.16,0.79 -0.21,1.72 -0.95,2.37c-0.46,0.4 -0.58,1.14 -0.27,1.69c0.33,0.6 1.06,0.78 1.98,0.5c1.44,-0.44 2.53,-1.82 2.93,-3.68c0.39,-1.85 -0.03,-3.62 -1.06,-4.51c-0.69,-0.6 -1.37,-0.87 -2.04,-0.81c-0.93,0.08 -1.51,0.77 -1.52,0.78c-0.08,0.11 -0.24,0.12 -0.35,0.03c-0.11,-0.08 -0.12,-0.24 -0.03,-0.35c0.03,-0.03 0.72,-0.86 1.86,-0.96c0.8,-0.07 1.61,0.24 2.41,0.93c1.16,1.01 1.64,2.97 1.22,4.99c-0.44,2.05 -1.66,3.56 -3.27,4.06c-0.33,0.1 -0.65,0.15 -0.94,0.15z" fill="#0F1D2A" id="svg_33"/>
    <path d="m78.03,88.15c-2.6,-1.79 -1.33,-5.94 1.83,-5.95c0.81,0 1.76,0.13 2.85,0.48c4.92,1.58 4.81,-2.01 8.7,-0.91c3.89,1.1 1.54,6.99 -3.21,7.88c-3.11,0.58 -7.54,0.32 -10.17,-1.5z" fill="#751A3D" id="XMLID_92_"/>
    <path d="m79.52,88.95c0,0 1.73,-3.21 5.48,-3.21c3.75,0 6.08,2.6 6.08,2.6s-2.05,1.88 -7.01,1.58c0,0 -3.51,-0.46 -4.55,-0.97z" fill="#FF7882" id="XMLID_85_"/>
    <circle cx="112.61" cy="51.05" fill="#777777" id="XMLID_347_" r="5.58"/>
    <circle cx="118.19" cy="45.46" fill="#777777" id="XMLID_349_" r="5.58"/>
    <circle cx="121.89" cy="47.57" fill="#777777" id="XMLID_350_" r="5.58"/>
    <circle cx="116.3" cy="52.12" fill="#777777" id="XMLID_351_" r="5.58"/>
    <circle cx="118.19" cy="57.7" fill="#777777" id="XMLID_354_" r="3.7"/>
    <circle cx="120" cy="54" fill="#777777" id="XMLID_355_" r="3.7"/>
    <circle cx="122.73" cy="43.94" fill="#777777" id="XMLID_352_" r="5.58"/>
    <path d="m91.6,70.56c0,0 2.8,4.4 7.36,2.13" fill="#EF8990" id="XMLID_104_"/>
    <path d="m77.67,70.56c0,0 -0.73,4.57 -6.41,3.45" fill="#EF8990" id="XMLID_348_"/>
   </g>
  </g>
 </g>
</svg>