<?xml version="1.0"?>
<svg width="200" height="200" xmlns="http://www.w3.org/2000/svg" xmlns:svg="http://www.w3.org/2000/svg" enable-background="new 0 0 750 500" version="1.1" xml:space="preserve">
 <g class="layer">
  <title>Layer 1</title>
  <g id="OBJECTS">
   <g id="XMLID_166_">
    <ellipse cx="297" cy="93.44" fill="#0F1D2A" id="XMLID_64_" rx="38.25" ry="38.25" transform="matrix(0.7071 -0.7071 0.7071 0.7071 -175.52 209.938)"/>
    <ellipse cx="414.43" cy="248.39" fill="#0F1D2A" id="XMLID_108_" rx="38.25" ry="38.25" transform="matrix(0.2245 -0.9745 0.9745 0.2245 -215.577 465.376)"/>
    <path d="m70.82,55.24c0,0 -16.18,11.19 -9.24,41.22c6.93,30.04 -3.86,47.75 -14.26,52.76c-10.39,5.01 34.25,16.81 44.28,-4.11c10.03,-20.93 25.05,-22.47 5.03,-50.58c-20.03,-28.12 -25.81,-39.29 -25.81,-39.29z" fill="#0F1D2A" id="XMLID_106_"/>
    <path d="m69.52,58.42c0,0 -5.36,20.87 -1.07,42.79c0,0 5.24,15.72 18.11,15.72c0,0 -1.43,14.3 -13.82,21.93c-12.39,7.62 -47.65,6.67 -60.04,35.26c0,0 48.6,23.35 94.83,8.1c46.22,-15.25 65,5.36 79.77,-3.21c0,0 -6.07,-16.29 -23.62,-28.13c-7.44,-5.03 -16.01,-8.09 -24.87,-9.48c-1.48,-0.24 -2.94,-0.52 -4.02,-0.84c-9.56,-2.81 -14.88,-4.37 -13.44,-34.11l1.43,-23.35c0,0 9.53,5.25 10.96,-5.72c1.43,-10.96 -6.2,-11.91 -10.49,-10.48c0,0 -1.9,-23.35 -18.58,-25.73c-16.68,-2.39 -30.38,5.81 -35.15,17.25z" fill="#FEB8BB" id="XMLID_122_"/>
    <path d="m86.56,116.93c0,0 16.62,-0.58 26.98,-7.15c0,0 -13.49,15.05 -29.16,15.04l2.18,-7.89z" fill="#EF8990" id="XMLID_121_"/>
    <path d="m72.74,138.85c0,0 3.28,11.39 25,11.39s32,-11.39 32,-11.39l17.61,4.45c0,0 13.77,2.95 27.03,16.56c13.26,13.61 12.92,19.14 12.92,19.14s-4.59,5.23 -19.63,0.75c-15.03,-4.47 -43.84,-1.83 -47.06,-1.09c-3.22,0.73 -39.54,16.86 -77.81,5.23c0,0 -23.13,-5.2 -30.1,-9.77c0,0 4.73,-14.42 22.71,-22.47c17.98,-8.05 37.33,-12.8 37.33,-12.8z" fill="#76AADB" id="XMLID_120_"/>
    <path d="m80.13,92.26c-0.5,0 -0.97,-0.21 -1.31,-0.59c-0.38,-0.42 -0.54,-0.99 -0.42,-1.54l2.7,-13.07c0.02,-0.14 0.16,-0.22 0.29,-0.2c0.14,0.03 0.23,0.16 0.2,0.3l-2.7,13.07c-0.08,0.4 0.03,0.8 0.3,1.11c0.27,0.3 0.66,0.45 1.07,0.41l5.38,-0.54c0.79,-0.08 1.47,-0.51 1.86,-1.2c0.4,-0.69 0.44,-1.5 0.11,-2.22c-0.05,-0.13 0,-0.27 0.13,-0.33c0.13,-0.06 0.27,0 0.33,0.13c0.39,0.87 0.34,1.84 -0.13,2.67c-0.48,0.83 -1.3,1.36 -2.25,1.45l-5.38,0.54c-0.06,0.01 -0.12,0.01 -0.18,0.01z" fill="#0F1D2A" id="svg_23"/>
    <path d="m76.63,77.79c0,1.64 -0.77,2.97 -1.72,2.97c-0.95,0 -1.73,-1.33 -1.73,-2.97s0.78,-2.98 1.73,-2.98c0.95,0 1.72,1.33 1.72,2.98z" fill="#0F1D2A" id="XMLID_114_"/>
    <path d="m95.05,77.79c0,1.64 -0.77,2.97 -1.72,2.97c-0.96,0 -1.73,-1.33 -1.73,-2.97s0.77,-2.98 1.73,-2.98c0.95,0 1.72,1.33 1.72,2.98z" fill="#0F1D2A" id="XMLID_113_"/>
    <path d="m77.61,100.59c-2.6,-1.8 -1.33,-5.94 1.83,-5.96c0.81,0 1.75,0.14 2.85,0.49c4.92,1.57 4.8,-2.02 8.7,-0.92c3.89,1.1 1.54,6.99 -3.21,7.88c-3.12,0.58 -7.54,0.32 -10.17,-1.49z" fill="#FFFFFF" id="XMLID_112_"/>
    <path d="m127.07,80.55c-0.73,0 -1.31,-0.31 -1.63,-0.88c-0.42,-0.76 -0.26,-1.76 0.37,-2.31c0.6,-0.53 0.92,-1.29 0.79,-1.9c-0.1,-0.53 -0.53,-0.93 -1.24,-1.16c-0.13,-0.04 -0.2,-0.18 -0.16,-0.31c0.04,-0.13 0.18,-0.21 0.31,-0.16c1.13,0.36 1.48,1.03 1.58,1.53c0.17,0.79 -0.21,1.72 -0.95,2.37c-0.45,0.4 -0.57,1.14 -0.26,1.69c0.33,0.6 1.05,0.78 1.98,0.5c1.44,-0.44 2.53,-1.82 2.93,-3.68c0.39,-1.85 -0.03,-3.62 -1.06,-4.51c-0.69,-0.6 -1.38,-0.87 -2.04,-0.81c-0.93,0.08 -1.51,0.77 -1.52,0.78c-0.09,0.11 -0.24,0.12 -0.35,0.03c-0.11,-0.08 -0.12,-0.24 -0.04,-0.35c0.03,-0.03 0.73,-0.86 1.87,-0.96c0.8,-0.07 1.61,0.24 2.41,0.93c1.16,1.01 1.64,2.97 1.21,4.99c-0.43,2.05 -1.65,3.56 -3.26,4.06c-0.33,0.1 -0.65,0.15 -0.94,0.15z" fill="#0F1D2A" id="svg_24"/>
    <path d="m84.58,46.65c0,0 10.91,19.58 32.14,19.58c0,0 -8.88,14.97 -3.18,22.42c5.03,6.57 12.75,20.71 0,32c-12.75,11.28 -3.09,33.19 25.27,20.74l-9.06,-57.43c0,0 -8.26,3.19 -6.5,-17.06c0,0 5.78,-2.12 7.93,0.98c0,0 -9.73,-49.1 -46.6,-21.23z" fill="#0F1D2A" id="XMLID_63_"/>
    <path d="m84.58,46.65c0,0 -4.04,13.44 -16.7,20.92c0,0 0,-35.87 39.67,-29.48l-22.97,8.56z" fill="#0F1D2A" id="XMLID_105_"/>
    <g id="svg_25">
     <ellipse cx="94.21" cy="74.01" fill="#0F1D2A" id="XMLID_70_" rx="8.33" ry="9.87"/>
     <path d="m94.21,84.14c-4.73,0 -8.58,-4.54 -8.58,-10.13c0,-5.58 3.85,-10.12 8.58,-10.12c4.73,0 8.58,4.54 8.58,10.12c0,5.59 -3.85,10.13 -8.58,10.13zm0,-19.75c-4.45,0 -8.08,4.31 -8.08,9.62c0,5.31 3.63,9.63 8.08,9.63c4.46,0 8.08,-4.32 8.08,-9.63c0,-5.3 -3.62,-9.62 -8.08,-9.62z" fill="#FFFFFF" id="svg_26"/>
    </g>
    <g id="svg_27">
     <ellipse cx="72.31" cy="74.01" fill="#0F1D2A" id="XMLID_3_" rx="8.33" ry="9.87"/>
     <path d="m72.31,84.14c-4.74,0 -8.59,-4.54 -8.59,-10.13c0,-5.58 3.85,-10.12 8.59,-10.12c4.73,0 8.58,4.54 8.58,10.12c0,5.59 -3.85,10.13 -8.58,10.13zm0,-19.75c-4.46,0 -8.09,4.31 -8.09,9.62c0,5.31 3.63,9.63 8.09,9.63s8.08,-4.32 8.08,-9.63c0,-5.3 -3.63,-9.62 -8.08,-9.62z" fill="#FFFFFF" id="svg_28"/>
    </g>
    <path d="m89.31,66.45l-11.92,0c-0.14,0 -0.25,-0.11 -0.25,-0.25s0.11,-0.25 0.25,-0.25l11.92,0c0.14,0 0.25,0.11 0.25,0.25s-0.11,0.25 -0.25,0.25z" fill="#FFFFFF" id="svg_29"/>
    <path d="m100.56,67.87c-0.13,0 -0.24,-0.1 -0.25,-0.23c-0.01,-0.14 0.09,-0.26 0.23,-0.27l22.6,-1.62c0.13,-0.02 0.25,0.09 0.26,0.23c0.01,0.14 -0.09,0.26 -0.23,0.27l-22.59,1.62c-0.01,0 -0.02,0 -0.02,0z" fill="#FFFFFF" id="svg_30"/>
    <path d="m137.77,57.38c-0.03,0 -0.05,0 -0.07,-0.01c-47.72,-13.58 -73.38,-3.55 -73.63,-3.45c-0.13,0.05 -0.27,-0.01 -0.33,-0.14c-0.05,-0.12 0.01,-0.27 0.14,-0.32c0.26,-0.11 26.05,-10.2 73.96,3.43c0.13,0.04 0.21,0.18 0.17,0.31c-0.04,0.11 -0.14,0.18 -0.24,0.18z" fill="#FFFFFF" id="svg_31"/>
    <g id="XMLID_165_">
     <g id="XMLID_119_">
      <path d="m51.46,175.29c0,0 2.72,-6.54 -0.9,-8.23c-3.63,-1.69 -5.66,4.53 0.9,8.23z" fill="#FFFFFF" id="XMLID_111_"/>
      <path d="m51.47,174.99c0,0 -4.76,-5.44 -8.12,-3.34c-3.36,2.11 1.43,6.83 8.12,3.34z" fill="#FFFFFF" id="XMLID_151_"/>
      <path d="m51.2,174.83c0,0 -7.42,1.17 -7.12,4.94c0.29,3.76 7.07,2.21 7.12,-4.94z" fill="#FFFFFF" id="XMLID_152_"/>
      <path d="m50.92,174.97c0,0 -2.58,6.59 1.08,8.22c3.66,1.62 5.56,-4.65 -1.08,-8.22z" fill="#FFFFFF" id="XMLID_154_"/>
      <path d="m50.91,175.27c0,0 4.88,5.35 8.2,3.19c3.32,-2.17 -1.58,-6.8 -8.2,-3.19z" fill="#FFFFFF" id="XMLID_158_"/>
      <path d="m51.19,175.43c0,0 7.39,-1.31 7.02,-5.07c-0.38,-3.76 -7.12,-2.08 -7.02,5.07z" fill="#FFFFFF" id="XMLID_160_"/>
     </g>
     <path d="m53.27,175.43c0,0 -0.24,-2.44 -2.36,-2.32c-2.11,0.11 -2.04,2.43 -1.35,3.35c0.69,0.92 3.09,1.01 3.71,-1.03z" fill="#FDCA6E" id="XMLID_163_"/>
    </g>
    <g id="XMLID_167_">
     <g id="XMLID_169_">
      <path d="m152.18,152.55c0,0 2.13,-5.13 -0.72,-6.46c-2.84,-1.32 -4.44,3.57 0.72,6.46z" fill="#FFFFFF" id="XMLID_197_"/>
      <path d="m152.18,152.32c0,0 -3.73,-4.27 -6.37,-2.62c-2.64,1.65 1.12,5.36 6.37,2.62z" fill="#FFFFFF" id="XMLID_194_"/>
      <path d="m151.97,152.2c0,0 -5.82,0.91 -5.59,3.87c0.23,2.95 5.55,1.73 5.59,-3.87z" fill="#FFFFFF" id="XMLID_191_"/>
      <path d="m151.75,152.31c0,0 -2.02,5.17 0.85,6.44c2.87,1.27 4.36,-3.64 -0.85,-6.44z" fill="#FFFFFF" id="XMLID_188_"/>
      <path d="m151.74,152.54c0,0 3.83,4.2 6.43,2.5c2.61,-1.7 -1.24,-5.34 -6.43,-2.5z" fill="#FFFFFF" id="XMLID_173_"/>
      <path d="m151.96,152.66c0,0 5.8,-1.02 5.51,-3.97c-0.3,-2.95 -5.59,-1.64 -5.51,3.97z" fill="#FFFFFF" id="XMLID_170_"/>
     </g>
     <path d="m153.6,152.66c0,0 -0.2,-1.91 -1.86,-1.82c-1.65,0.09 -1.59,1.91 -1.06,2.63c0.54,0.72 2.43,0.79 2.92,-0.81z" fill="#FDCA6E" id="XMLID_168_"/>
    </g>
    <g id="XMLID_171_">
     <g id="XMLID_175_">
      <path d="m110.84,169.65c0,0 3.19,-7.7 -1.07,-9.69c-4.26,-1.98 -6.66,5.34 1.07,9.69z" fill="#FFFFFF" id="XMLID_218_"/>
      <path d="m110.85,169.29c0,0 -5.6,-6.39 -9.56,-3.92c-3.95,2.47 1.69,8.03 9.56,3.92z" fill="#FFFFFF" id="XMLID_215_"/>
      <path d="m110.53,169.11c0,0 -8.73,1.37 -8.38,5.8c0.35,4.43 8.32,2.61 8.38,-5.8z" fill="#FFFFFF" id="XMLID_212_"/>
      <path d="m110.2,169.28c0,0 -3.03,7.75 1.27,9.66c4.3,1.9 6.54,-5.46 -1.27,-9.66z" fill="#FFFFFF" id="XMLID_209_"/>
      <path d="m110.19,169.63c0,0 5.73,6.29 9.64,3.74c3.9,-2.54 -1.86,-8 -9.64,-3.74z" fill="#FFFFFF" id="XMLID_192_"/>
      <path d="m110.52,169.81c0,0 8.7,-1.54 8.25,-5.96c-0.44,-4.42 -8.37,-2.45 -8.25,5.96z" fill="#FFFFFF" id="XMLID_187_"/>
     </g>
     <path d="m112.97,169.81c0,0 -0.29,-2.87 -2.78,-2.73c-2.48,0.13 -2.4,2.86 -1.59,3.94c0.81,1.08 3.63,1.19 4.37,-1.21z" fill="#FDCA6E" id="XMLID_172_"/>
    </g>
    <g id="XMLID_189_">
     <g id="XMLID_198_">
      <path d="m63.49,152.29c0,0 2.38,-5.73 -0.8,-7.21c-3.17,-1.48 -4.96,3.98 0.8,7.21z" fill="#FFFFFF" id="XMLID_239_"/>
      <path d="m63.5,152.03c0,0 -4.17,-4.76 -7.12,-2.92c-2.95,1.84 1.26,5.98 7.12,2.92z" fill="#FFFFFF" id="XMLID_236_"/>
      <path d="m63.26,151.89c0,0 -6.51,1.03 -6.25,4.33s6.2,1.94 6.25,-4.33z" fill="#FFFFFF" id="XMLID_233_"/>
      <path d="m63.01,152.02c0,0 -2.26,5.77 0.95,7.19c3.2,1.42 4.87,-4.06 -0.95,-7.19z" fill="#FFFFFF" id="XMLID_230_"/>
      <path d="m63,152.28c0,0 4.27,4.68 7.18,2.79c2.91,-1.89 -1.38,-5.96 -7.18,-2.79z" fill="#FFFFFF" id="XMLID_213_"/>
      <path d="m63.25,152.41c0,0 6.48,-1.14 6.15,-4.43s-6.24,-1.83 -6.15,4.43z" fill="#FFFFFF" id="XMLID_208_"/>
     </g>
     <path d="m65.07,152.41c0,0 -0.21,-2.13 -2.06,-2.03c-1.85,0.1 -1.79,2.13 -1.19,2.94c0.61,0.8 2.7,0.88 3.25,-0.91z" fill="#FDCA6E" id="XMLID_190_"/>
    </g>
    <g id="XMLID_210_">
     <g id="XMLID_219_">
      <path d="m31.21,164.44c0,0 1.77,-4.25 -0.59,-5.35c-2.35,-1.1 -3.68,2.95 0.59,5.35z" fill="#FFFFFF" id="XMLID_260_"/>
      <path d="m31.22,164.24c0,0 -3.09,-3.53 -5.28,-2.16c-2.19,1.36 0.93,4.44 5.28,2.16z" fill="#FFFFFF" id="XMLID_257_"/>
      <path d="m31.04,164.14c0,0 -4.82,0.76 -4.63,3.21c0.19,2.44 4.6,1.44 4.63,-3.21z" fill="#FFFFFF" id="XMLID_254_"/>
      <path d="m30.86,164.24c0,0 -1.68,4.28 0.7,5.33c2.37,1.05 3.61,-3.01 -0.7,-5.33z" fill="#FFFFFF" id="XMLID_251_"/>
      <path d="m30.85,164.43c0,0 3.17,3.48 5.33,2.07c2.15,-1.41 -1.03,-4.42 -5.33,-2.07z" fill="#FFFFFF" id="XMLID_234_"/>
      <path d="m31.03,164.53c0,0 4.81,-0.85 4.56,-3.29c-0.24,-2.44 -4.63,-1.35 -4.56,3.29z" fill="#FFFFFF" id="XMLID_229_"/>
     </g>
     <path d="m32.39,164.53c0,0 -0.17,-1.58 -1.54,-1.51c-1.37,0.08 -1.32,1.58 -0.88,2.18c0.45,0.6 2.01,0.65 2.42,-0.67z" fill="#FDCA6E" id="XMLID_211_"/>
    </g>
    <g id="XMLID_231_">
     <g id="XMLID_240_">
      <path d="m84.55,166.89c0,0 1.76,-4.25 -0.59,-5.35c-2.36,-1.1 -3.68,2.95 0.59,5.35z" fill="#FFFFFF" id="XMLID_281_"/>
      <path d="m84.55,166.69c0,0 -3.09,-3.53 -5.27,-2.16c-2.19,1.36 0.93,4.43 5.27,2.16z" fill="#FFFFFF" id="XMLID_278_"/>
      <path d="m84.38,166.59c0,0 -4.82,0.76 -4.63,3.21c0.19,2.44 4.6,1.43 4.63,-3.21z" fill="#FFFFFF" id="XMLID_275_"/>
      <path d="m84.19,166.68c0,0 -1.67,4.29 0.71,5.34c2.37,1.05 3.61,-3.01 -0.71,-5.34z" fill="#FFFFFF" id="XMLID_272_"/>
      <path d="m84.19,166.88c0,0 3.17,3.47 5.32,2.07c2.16,-1.41 -1.02,-4.42 -5.32,-2.07z" fill="#FFFFFF" id="XMLID_255_"/>
      <path d="m84.37,166.98c0,0 4.81,-0.85 4.56,-3.29c-0.24,-2.45 -4.63,-1.36 -4.56,3.29z" fill="#FFFFFF" id="XMLID_250_"/>
     </g>
     <path d="m85.72,166.98c0,0 -0.16,-1.58 -1.53,-1.51c-1.37,0.07 -1.32,1.58 -0.88,2.18s2.01,0.65 2.41,-0.67z" fill="#FDCA6E" id="XMLID_232_"/>
    </g>
    <g id="XMLID_284_">
     <g id="XMLID_286_">
      <path d="m131.28,152.99c0,0 1.76,-4.25 -0.59,-5.34c-2.36,-1.1 -3.68,2.94 0.59,5.34z" fill="#FFFFFF" id="XMLID_302_"/>
      <path d="m131.28,152.8c0,0 -3.09,-3.53 -5.27,-2.17c-2.19,1.37 0.93,4.44 5.27,2.17z" fill="#FFFFFF" id="XMLID_299_"/>
      <path d="m131.11,152.7c0,0 -4.83,0.76 -4.63,3.2c0.19,2.45 4.59,1.44 4.63,-3.2z" fill="#FFFFFF" id="XMLID_296_"/>
      <path d="m130.92,152.79c0,0 -1.67,4.28 0.7,5.34c2.38,1.05 3.62,-3.02 -0.7,-5.34z" fill="#FFFFFF" id="XMLID_293_"/>
      <path d="m130.92,152.98c0,0 3.17,3.48 5.32,2.07c2.16,-1.4 -1.02,-4.42 -5.32,-2.07z" fill="#FFFFFF" id="XMLID_290_"/>
      <path d="m131.1,153.08c0,0 4.8,-0.85 4.56,-3.29c-0.25,-2.44 -4.63,-1.35 -4.56,3.29z" fill="#FFFFFF" id="XMLID_287_"/>
     </g>
     <path d="m132.45,153.08c0,0 -0.16,-1.58 -1.53,-1.5c-1.37,0.07 -1.33,1.57 -0.88,2.17c0.45,0.6 2.01,0.66 2.41,-0.67z" fill="#FDCA6E" id="XMLID_285_"/>
    </g>
    <g id="XMLID_305_">
     <g id="XMLID_307_">
      <path d="m140.48,168.44c0,0 1.76,-4.25 -0.59,-5.35c-2.36,-1.1 -3.68,2.95 0.59,5.35z" fill="#FFFFFF" id="XMLID_323_"/>
      <path d="m140.49,168.24c0,0 -3.1,-3.53 -5.28,-2.16c-2.19,1.36 0.93,4.44 5.28,2.16z" fill="#FFFFFF" id="XMLID_320_"/>
      <path d="m140.31,168.14c0,0 -4.82,0.76 -4.63,3.21c0.19,2.44 4.6,1.44 4.63,-3.21z" fill="#FFFFFF" id="XMLID_317_"/>
      <path d="m140.12,168.24c0,0 -1.67,4.28 0.71,5.33c2.37,1.05 3.61,-3.01 -0.71,-5.33z" fill="#FFFFFF" id="XMLID_314_"/>
      <path d="m140.12,168.43c0,0 3.17,3.48 5.32,2.07c2.16,-1.41 -1.02,-4.42 -5.32,-2.07z" fill="#FFFFFF" id="XMLID_311_"/>
      <path d="m140.3,168.53c0,0 4.81,-0.85 4.56,-3.29c-0.24,-2.44 -4.63,-1.35 -4.56,3.29z" fill="#FFFFFF" id="XMLID_308_"/>
     </g>
     <path d="m141.65,168.53c0,0 -0.16,-1.58 -1.53,-1.51c-1.37,0.08 -1.32,1.58 -0.88,2.18c0.45,0.6 2.01,0.65 2.41,-0.67z" fill="#FDCA6E" id="XMLID_306_"/>
    </g>
    <g id="XMLID_326_">
     <g id="XMLID_328_">
      <path d="m170.85,168.13c0,0 1.76,-4.25 -0.59,-5.35c-2.35,-1.1 -3.68,2.95 0.59,5.35z" fill="#FFFFFF" id="XMLID_344_"/>
      <path d="m170.86,167.93c0,0 -3.09,-3.53 -5.28,-2.16c-2.19,1.36 0.93,4.43 5.28,2.16z" fill="#FFFFFF" id="XMLID_341_"/>
      <path d="m170.68,167.83c0,0 -4.82,0.76 -4.63,3.21c0.19,2.44 4.6,1.44 4.63,-3.21z" fill="#FFFFFF" id="XMLID_338_"/>
      <path d="m170.5,167.92c0,0 -1.68,4.29 0.7,5.34c2.38,1.05 3.61,-3.01 -0.7,-5.34z" fill="#FFFFFF" id="XMLID_335_"/>
      <path d="m170.49,168.12c0,0 3.17,3.47 5.33,2.07c2.15,-1.41 -1.03,-4.42 -5.33,-2.07z" fill="#FFFFFF" id="XMLID_332_"/>
      <path d="m170.67,168.22c0,0 4.81,-0.85 4.56,-3.29c-0.24,-2.45 -4.62,-1.36 -4.56,3.29z" fill="#FFFFFF" id="XMLID_329_"/>
     </g>
     <path d="m172.03,168.22c0,0 -0.16,-1.58 -1.54,-1.51c-1.37,0.08 -1.32,1.58 -0.87,2.18c0.44,0.59 2,0.65 2.41,-0.67z" fill="#FDCA6E" id="XMLID_327_"/>
    </g>
   </g>
  </g>
 </g>
</svg>