<?xml version="1.0"?>
<svg width="200" height="200" xmlns="http://www.w3.org/2000/svg" xmlns:svg="http://www.w3.org/2000/svg" enable-background="new 0 0 750 500" version="1.1" xml:space="preserve">
 <g class="layer">
  <title>Layer 1</title>
  <g id="OBJECTS">
   <g id="XMLID_150_">
    <path d="m62.91,74.61c-0.08,0 -0.17,-0.05 -0.22,-0.13c-0.06,-0.12 -0.02,-0.28 0.1,-0.34l9.43,-5.15c0.12,-0.07 0.27,-0.02 0.34,0.1c0.06,0.12 0.02,0.27 -0.1,0.34l-9.43,5.15c-0.04,0.02 -0.08,0.03 -0.12,0.03z" fill="#0F1D2A" id="svg_1"/>
    <path d="m69.52,55.58c0,0 -5.36,20.87 -1.07,42.79c0,0 5.24,15.73 18.11,15.73c0,0 -1.43,14.29 -13.82,21.92c-12.39,7.62 -47.65,6.67 -60.04,35.26c0,0 48.6,23.35 94.83,8.1c46.22,-15.25 65,5.37 79.77,-3.21c0,0 -6.07,-16.28 -23.62,-28.13c-7.44,-5.02 -16.01,-8.09 -24.87,-9.48c-1.48,-0.24 -2.94,-0.51 -4.02,-0.83c-9.56,-2.82 -14.88,-4.37 -13.44,-34.11l1.43,-23.35c0,0 9.53,5.24 10.96,-5.72c1.43,-10.96 -6.2,-11.92 -10.49,-10.49c0,0 -1.9,-23.35 -18.58,-25.73c-16.68,-2.39 -30.38,5.81 -35.15,17.25z" fill="#FEB8BB" id="XMLID_1_"/>
    <path d="m86.56,114.1c0,0 16.62,-0.59 26.98,-7.16c0,0 -13.49,15.05 -29.16,15.04l2.18,-7.88z" fill="#EF8990" id="XMLID_6_"/>
    <path d="m72.74,136.02c0,0 3.28,11.38 25,11.38s32,-11.38 32,-11.38l17.61,4.44c0,0 13.77,2.95 27.03,16.56c13.26,13.61 12.92,19.15 12.92,19.15s-4.59,5.23 -19.63,0.75c-15.03,-4.48 -43.84,-1.83 -47.06,-1.1c-3.22,0.73 -39.54,16.87 -77.81,5.23c0,0 -23.13,-5.2 -30.1,-9.77c0,0 4.73,-14.42 22.71,-22.47s37.33,-12.79 37.33,-12.79z" fill="#FDCA6E" id="XMLID_7_"/>
    <path d="m97.18,24.88c0,0 -26.52,-9.58 -39.78,3.68c-13.26,13.26 -5.16,34.25 14.73,29.46c19.89,-4.78 30.94,-13.62 42.35,-9.2c0,0 6.63,10.68 16.21,12.15c9.57,1.47 0,-10.31 0,-10.31s10.68,-2.48 8.1,-9.34c-2.58,-6.86 -11.78,0 -11.78,0s-1.11,-18.28 -16.58,-24.91c-15.47,-6.63 -13.25,8.47 -13.25,8.47z" fill="#0F1D2A" id="XMLID_5_"/>
    <path d="m103.72,48.01c0,0 8.08,-0.51 9.82,6.31s0.22,10.56 2.95,13.46c2.72,2.9 1.02,8.35 3.75,9.2c2.72,0.86 3.23,-3.58 2.72,-6.81c-0.51,-3.24 0.29,-6.11 0.29,-6.11s3.89,-1.2 5.93,-0.09c2.04,1.11 2.81,-3.18 2.47,-4.71c-0.34,-1.53 -16.19,-21.22 -17.04,-21.35c-0.85,-0.12 -10.89,10.1 -10.89,10.1z" fill="#0F1D2A" id="XMLID_9_"/>
    <path d="m78.57,64.8c0,0 -5.13,-0.67 -8.7,2.23s-2.24,4.25 3.34,3.8c5.59,-0.45 8.27,-1.56 8.04,-4.02c-0.22,-2.46 -2.68,-2.01 -2.68,-2.01z" fill="#0F1D2A" id="XMLID_8_"/>
    <path d="m92.25,64.8c0,0 5.14,-0.67 8.71,2.23c3.58,2.91 2.24,4.25 -3.35,3.8c-5.58,-0.45 -8.26,-1.56 -8.04,-4.02c0.23,-2.46 2.68,-2.01 2.68,-2.01z" fill="#0F1D2A" id="XMLID_11_"/>
    <path d="m79.76,91.88c-0.5,0 -0.98,-0.2 -1.32,-0.58c-0.38,-0.43 -0.53,-0.99 -0.42,-1.55l2.7,-13.07c0.03,-0.13 0.17,-0.22 0.3,-0.19c0.13,0.03 0.22,0.16 0.19,0.29l-2.7,13.07c-0.08,0.4 0.03,0.81 0.3,1.11c0.28,0.31 0.67,0.46 1.08,0.42l5.37,-0.54c0.79,-0.08 1.47,-0.52 1.87,-1.21c0.39,-0.68 0.44,-1.49 0.11,-2.22c-0.31,-0.67 -0.89,-1.16 -1.6,-1.35c-0.72,-0.19 -1.47,-0.04 -2.07,0.4l-0.89,0.66c-0.12,0.08 -0.27,0.06 -0.35,-0.05c-0.09,-0.11 -0.06,-0.27 0.05,-0.35l0.9,-0.66c0.71,-0.53 1.62,-0.71 2.48,-0.48c0.86,0.22 1.57,0.82 1.93,1.63c0.4,0.87 0.35,1.85 -0.13,2.67c-0.48,0.83 -1.3,1.36 -2.25,1.46l-5.37,0.53c-0.06,0.01 -0.12,0.01 -0.18,0.01z" fill="#0F1D2A" id="svg_2"/>
    <path d="m76.63,78.15c0,1.64 -0.77,2.98 -1.72,2.98c-0.95,0 -1.73,-1.34 -1.73,-2.98s0.78,-2.98 1.73,-2.98c0.95,0 1.72,1.33 1.72,2.98z" fill="#0F1D2A" id="XMLID_12_"/>
    <path d="m95.05,78.15c0,1.64 -0.77,2.98 -1.72,2.98c-0.96,0 -1.73,-1.34 -1.73,-2.98s0.77,-2.98 1.73,-2.98c0.95,0 1.72,1.33 1.72,2.98z" fill="#0F1D2A" id="XMLID_16_"/>
    <path d="m77.61,100.22c-2.6,-1.8 -1.33,-5.94 1.83,-5.95c0.81,-0.01 1.75,0.13 2.85,0.48c4.92,1.57 4.8,-2.01 8.7,-0.92c3.89,1.1 1.54,6.99 -3.21,7.88c-3.12,0.58 -7.54,0.32 -10.17,-1.49z" fill="#FFFFFF" id="XMLID_14_"/>
    <path d="m88.98,107.94c-0.06,0 -0.12,-0.03 -0.15,-0.09c-0.01,-0.02 -0.84,-1.57 -4.27,-1.57c-3.43,0 -4.22,1.55 -4.23,1.56c-0.04,0.09 -0.15,0.13 -0.23,0.08c-0.09,-0.04 -0.12,-0.14 -0.08,-0.23c0.03,-0.07 0.86,-1.75 4.54,-1.75c3.66,0 4.54,1.68 4.58,1.75c0.04,0.09 0.01,0.19 -0.08,0.23c-0.03,0.02 -0.05,0.02 -0.08,0.02z" fill="#EF8990" id="svg_3"/>
    <path d="m127.07,77.71c-0.73,0 -1.31,-0.31 -1.63,-0.88c-0.42,-0.76 -0.26,-1.75 0.37,-2.31c0.6,-0.53 0.92,-1.29 0.79,-1.9c-0.1,-0.52 -0.53,-0.92 -1.24,-1.15c-0.13,-0.05 -0.2,-0.19 -0.16,-0.32c0.04,-0.13 0.18,-0.2 0.31,-0.16c1.12,0.37 1.48,1.04 1.58,1.53c0.17,0.79 -0.21,1.72 -0.95,2.37c-0.45,0.4 -0.57,1.15 -0.26,1.69c0.33,0.6 1.05,0.79 1.98,0.5c1.44,-0.44 2.53,-1.81 2.93,-3.68c0.39,-1.84 -0.03,-3.61 -1.06,-4.51c-0.69,-0.59 -1.37,-0.87 -2.04,-0.81c-0.92,0.08 -1.51,0.78 -1.52,0.78c-0.09,0.11 -0.24,0.12 -0.35,0.04c-0.11,-0.09 -0.12,-0.25 -0.03,-0.36c0.02,-0.03 0.72,-0.86 1.86,-0.96c0.8,-0.06 1.61,0.25 2.41,0.93c1.16,1.01 1.64,2.97 1.21,5c-0.43,2.04 -1.65,3.56 -3.26,4.05c-0.33,0.1 -0.65,0.15 -0.94,0.15z" fill="#0F1D2A" id="svg_4"/>
    <path d="m52.64,38.16c-0.01,0 -0.02,0 -0.03,0c-0.14,-0.01 -0.24,-0.13 -0.22,-0.27c0.01,-0.17 1.88,-17.29 24.22,-19.42c0.13,0 0.26,0.09 0.27,0.23c0.02,0.14 -0.08,0.26 -0.22,0.27c-21.93,2.09 -23.76,18.8 -23.77,18.97c-0.02,0.13 -0.13,0.22 -0.25,0.22z" fill="#0F1D2A" id="svg_5"/>
    <path d="m125.44,43.75c-0.02,0 -0.04,0 -0.05,-0.01c-0.14,-0.02 -0.22,-0.16 -0.2,-0.29c0.02,-0.08 1.79,-7.77 13.96,-9.82c0.14,-0.02 0.27,0.07 0.29,0.2c0.02,0.14 -0.07,0.27 -0.21,0.29c-11.81,1.99 -13.53,9.36 -13.55,9.43c-0.02,0.12 -0.13,0.2 -0.24,0.2z" fill="#0F1D2A" id="svg_6"/>
    <path d="m125.44,46.41c-0.02,0 -0.04,0 -0.06,0c-0.14,-0.04 -0.22,-0.18 -0.18,-0.31c0.03,-0.14 3.53,-13.72 1.53,-19.93c-0.04,-0.13 0.03,-0.27 0.16,-0.31c0.14,-0.05 0.28,0.03 0.32,0.16c2.04,6.34 -1.38,19.64 -1.53,20.21c-0.03,0.11 -0.13,0.18 -0.24,0.18z" fill="#0F1D2A" id="svg_7"/>
    <path d="m78.9,82.19l-15.99,0c-0.14,0 -0.25,-0.12 -0.25,-0.25l0,-7.58c0,-0.14 0.11,-0.25 0.25,-0.25l15.99,0c0.14,0 0.25,0.11 0.25,0.25l0,7.58c0,0.13 -0.11,0.25 -0.25,0.25zm-15.74,-0.5l15.49,0l0,-7.08l-15.49,0l0,7.08z" fill="#0F1D2A" id="svg_8"/>
    <path d="m105.3,82.19l-15.99,0c-0.14,0 -0.25,-0.12 -0.25,-0.25l0,-7.58c0,-0.14 0.11,-0.25 0.25,-0.25l15.99,0c0.14,0 0.25,0.11 0.25,0.25l0,7.58c0,0.13 -0.11,0.25 -0.25,0.25zm-15.74,-0.5l15.49,0l0,-7.08l-15.49,0l0,7.08z" fill="#0F1D2A" id="svg_9"/>
    <polygon fill="#FFFFFF" id="XMLID_23_" points="60.96099853515625,153.94601440429688 59.001983642578125,152.8590087890625 56.9949951171875,153.85601806640625 57.42401123046875,151.65701293945312 55.85498046875,150.05599975585938 58.079986572265625,149.78500366210938 59.11700439453125,147.79800415039062 60.06298828125,149.83001708984375 62.272003173828125,150.2030029296875 60.631988525390625,151.73001098632812 "/>
    <polygon fill="#FFFFFF" id="XMLID_128_" points="122.83401489257812,168.24899291992188 120.875,167.1610107421875 118.86798095703125,168.15798950195312 119.2969970703125,165.95901489257812 117.72799682617188,164.3590087890625 119.95297241210938,164.08700561523438 120.989990234375,162.10101318359375 121.93597412109375,164.13198852539062 124.14498901367188,164.5050048828125 122.50497436523438,166.03201293945312 "/>
    <polygon fill="#FFFFFF" id="XMLID_126_" points="31.1259765625,168.531005859375 32.41400146484375,166.07501220703125 31.121002197265625,163.62200927734375 33.85400390625,164.0880126953125 35.787994384765625,162.10101318359375 36.188995361328125,164.843994140625 38.677001953125,166.06900024414062 36.191986083984375,167.29901123046875 35.795989990234375,170.04299926757812 33.858001708984375,168.05899047851562 "/>
    <polygon fill="#FFFFFF" id="XMLID_129_" points="139.63998413085938,153.99899291992188 140.927001953125,151.54400634765625 139.63397216796875,149.09100341796875 142.36798095703125,149.55599975585938 144.30099487304688,147.56900024414062 144.70297241210938,150.31298828125 147.19000244140625,151.53701782226562 144.70498657226562,152.76699829101562 144.30899047851562,155.51101684570312 142.37197875976562,153.52801513671875 "/>
    <polygon fill="#FFFFFF" id="XMLID_127_" points="76.6409912109375,170.36199951171875 78.41799926757812,166.9739990234375 76.63397216796875,163.5889892578125 80.40499877929688,164.23199462890625 83.072998046875,161.489990234375 83.62698364257812,165.27499389648438 87.05899047851562,166.96499633789062 83.62997436523438,168.6610107421875 83.08401489257812,172.447998046875 80.4110107421875,169.71099853515625 "/>
    <polygon fill="#FFFFFF" id="XMLID_130_" points="163.52197265625,169.4639892578125 165.29901123046875,166.07699584960938 163.51498413085938,162.6920166015625 167.2860107421875,163.33499145507812 169.95401000976562,160.593017578125 170.50799560546875,164.37799072265625 173.94000244140625,166.0679931640625 170.510986328125,167.76400756835938 169.96499633789062,171.55099487304688 167.2919921875,168.81399536132812 "/>
    <path d="m89.31,74.61l-10.41,0c-0.14,0 -0.25,-0.12 -0.25,-0.25c0,-0.14 0.11,-0.25 0.25,-0.25l10.41,0c0.14,0 0.25,0.11 0.25,0.25c0,0.13 -0.11,0.25 -0.25,0.25z" fill="#0F1D2A" id="svg_10"/>
    <path d="m105.3,74.61c-0.09,0 -0.17,-0.05 -0.22,-0.13c-0.07,-0.12 -0.03,-0.27 0.09,-0.34l17.96,-10.3c0.12,-0.06 0.27,-0.02 0.34,0.1c0.07,0.12 0.03,0.27 -0.09,0.34l-17.96,10.29c-0.04,0.03 -0.08,0.04 -0.12,0.04z" fill="#0F1D2A" id="svg_11"/>
   </g>
  </g>
 </g>
</svg>