<?xml version="1.0"?>
<svg viewBox="0 0 24 24" xmlns="http://www.w3.org/2000/svg" xmlns:svg="http://www.w3.org/2000/svg">
 <g class="layer">
  <title>Layer 1</title>
  <path d="m12,9a3,3 0 0 1 3,3a3,3 0 0 1 -3,3a3,3 0 0 1 -3,-3a3,3 0 0 1 3,-3m0,-4.5c5,0 9.27,3.11 11,7.5c-1.73,4.39 -6,7.5 -11,7.5c-5,0 -9.27,-3.11 -11,-7.5c1.73,-4.39 6,-7.5 11,-7.5m-8.82,7.5c1.65,3.36 5.06,5.5 8.82,5.5c3.76,0 7.17,-2.14 8.82,-5.5c-1.65,-3.36 -5.06,-5.5 -8.82,-5.5c-3.76,0 -7.17,2.14 -8.82,5.5z" fill="#ffffff" id="svg_1"/>
 </g>
</svg>