<?xml version="1.0"?>
<svg viewBox="0 0 24 24" xmlns="http://www.w3.org/2000/svg" xmlns:svg="http://www.w3.org/2000/svg">
 <g class="layer">
  <title>Layer 1</title>
  <path d="m11,18l2,0l0,-2l-2,0l0,2m1,-16a10,10 0 0 0 -10,10a10,10 0 0 0 10,10a10,10 0 0 0 10,-10a10,10 0 0 0 -10,-10m0,18c-4.41,0 -8,-3.59 -8,-8c0,-4.41 3.59,-8 8,-8c4.41,0 8,3.59 8,8c0,4.41 -3.59,8 -8,8m0,-14a4,4 0 0 0 -4,4l2,0a2,2 0 0 1 2,-2a2,2 0 0 1 2,2c0,2 -3,1.75 -3,5l2,0c0,-2.25 3,-2.5 3,-5a4,4 0 0 0 -4,-4z" fill="#ffffff" id="svg_1"/>
 </g>
</svg>