<?xml version="1.0"?>
<svg viewBox="0 0 24 24" xmlns="http://www.w3.org/2000/svg" xmlns:svg="http://www.w3.org/2000/svg">
 <g class="layer">
  <title>Layer 1</title>
  <path d="m6,2a3,3 0 0 1 3,3c0,1.28 -0.81,2.38 -1.94,2.81c0.09,0.46 0.33,1.02 0.94,1.82c1,1.29 3,3.2 4,4.54c1,-1.34 3,-3.25 4,-4.54c0.61,-0.8 0.85,-1.36 0.94,-1.82c-1.13,-0.43 -1.94,-1.53 -1.94,-2.81a3,3 0 0 1 3,-3a3,3 0 0 1 3,3c0,1.32 -0.86,2.45 -2.05,2.85c-0.08,0.52 -0.31,1.15 -0.95,1.98c-1,1.34 -3,3.25 -4,4.55c-0.61,0.79 -0.85,1.35 -0.94,1.81c1.13,0.43 1.94,1.53 1.94,2.81a3,3 0 0 1 -3,3a3,3 0 0 1 -3,-3c0,-1.28 0.81,-2.38 1.94,-2.81c-0.09,-0.46 -0.33,-1.02 -0.94,-1.81c-1,-1.3 -3,-3.21 -4,-4.55c-0.64,-0.83 -0.87,-1.46 -0.95,-1.98c-1.19,-0.4 -2.05,-1.53 -2.05,-2.85a3,3 0 0 1 3,-3m0,2a1,1 0 0 0 -1,1a1,1 0 0 0 1,1a1,1 0 0 0 1,-1a1,1 0 0 0 -1,-1m12,0a1,1 0 0 0 -1,1a1,1 0 0 0 1,1a1,1 0 0 0 1,-1a1,1 0 0 0 -1,-1m-6,14a1,1 0 0 0 -1,1a1,1 0 0 0 1,1a1,1 0 0 0 1,-1a1,1 0 0 0 -1,-1z" fill="#ffffff" id="svg_1"/>
 </g>
</svg>