<?xml version="1.0"?>
<svg viewBox="0 0 24 24" xmlns="http://www.w3.org/2000/svg" xmlns:svg="http://www.w3.org/2000/svg">
 <g class="layer">
  <title>Layer 1</title>
  <path d="m22.61,19l-9.08,-9.09c0.93,-2.34 0.47,-5.1 -1.44,-7c-2.3,-2.3 -5.88,-2.51 -8.43,-0.65l3.84,3.85l-1.42,1.39l-3.83,-3.81c-1.86,2.54 -1.65,6.13 0.65,8.42c1.86,1.86 4.57,2.35 6.89,1.48l9.11,9.11c0.39,0.39 1.02,0.39 1.41,0l2.3,-2.3c0.39,-0.4 0.39,-1.01 0,-1.4m-3,1.59l-9.46,-9.46c-0.61,0.45 -1.29,0.72 -2,0.82c-1.36,0.2 -2.79,-0.21 -3.83,-1.25c-0.95,-0.94 -1.39,-2.2 -1.32,-3.44l3.09,3.09l4.24,-4.24l-3.09,-3.11c1.26,-0.05 2.49,0.39 3.44,1.33c1.08,1.08 1.49,2.57 1.24,3.96c-0.12,0.71 -0.42,1.37 -0.88,1.96l9.46,9.45l-0.89,0.89z" fill="#ffffff" id="svg_1"/>
 </g>
</svg>